<?xml version="1.0" encoding="UTF-8" standalone="no"?>
<!DOCTYPE svg PUBLIC "-//W3C//DTD SVG 1.1//EN" "http://www.w3.org/Graphics/SVG/1.1/DTD/svg11.dtd">
<svg width="100%" height="100%" viewBox="0 0 1024 1024" version="1.1" xmlns="http://www.w3.org/2000/svg" xmlns:xlink="http://www.w3.org/1999/xlink" xml:space="preserve" xmlns:serif="http://www.serif.com/" style="fill-rule:evenodd;clip-rule:evenodd;stroke-linecap:round;">
    <g id="row-1" transform="matrix(1,0,0,1,33.187,-3.49304)">
        <g transform="matrix(0.937215,0,0,0.937215,11.6407,27.8263)">
            <path id="item-icon-1" d="M361,287.206L361,338.794C361,349.394 352.394,358 341.794,358L290.206,358C279.606,358 271,349.394 271,338.794L271,287.206C271,276.606 279.606,268 290.206,268L341.794,268C352.394,268 361,276.606 361,287.206Z" style="fill:url(#_Linear1);"/>
        </g>
        <path id="title-line-1" d="M692,296C692,305.383 684.383,313 675,313L417,313C407.617,313 400,305.383 400,296C400,286.617 407.617,279 417,279L675,279C684.383,279 692,286.617 692,296Z" style="fill:url(#_Linear2);"/>
        <g id="subtitle-line-1" transform="matrix(1,0,0,1,-6,0.349378)">
            <path d="M596,348C596,356.279 589.279,363 581,363L421,363C412.721,363 406,356.279 406,348C406,339.721 412.721,333 421,333L581,333C589.279,333 596,339.721 596,348Z" style="fill:url(#_Linear3);"/>
        </g>
    </g>
    <g id="row-11" serif:id="row-1" transform="matrix(1,0,0,1,33.187,169.367)">
        <g transform="matrix(0.937215,0,0,0.937215,11.6407,27.8263)">
            <path id="item-icon-11" serif:id="item-icon-1" d="M361,287.206L361,338.794C361,349.394 352.394,358 341.794,358L290.206,358C279.606,358 271,349.394 271,338.794L271,287.206C271,276.606 279.606,268 290.206,268L341.794,268C352.394,268 361,276.606 361,287.206Z" style="fill:url(#_Linear4);"/>
        </g>
        <path id="title-line-11" serif:id="title-line-1" d="M692,296C692,305.383 684.383,313 675,313L417,313C407.617,313 400,305.383 400,296C400,286.617 407.617,279 417,279L675,279C684.383,279 692,286.617 692,296Z" style="fill:url(#_Linear5);"/>
        <g id="subtitle-line-11" serif:id="subtitle-line-1" transform="matrix(1,0,0,1,-6,0.349378)">
            <path d="M596,348C596,356.279 589.279,363 581,363L421,363C412.721,363 406,356.279 406,348C406,339.721 412.721,333 421,333L581,333C589.279,333 596,339.721 596,348Z" style="fill:url(#_Linear6);"/>
        </g>
    </g>
    <g id="row-12" serif:id="row-1" transform="matrix(1,0,0,1,33.187,342.249)">
        <g transform="matrix(0.937215,0,0,0.937215,11.6407,27.8263)">
            <path id="item-icon-12" serif:id="item-icon-1" d="M361,287.206L361,338.794C361,349.394 352.394,358 341.794,358L290.206,358C279.606,358 271,349.394 271,338.794L271,287.206C271,276.606 279.606,268 290.206,268L341.794,268C352.394,268 361,276.606 361,287.206Z" style="fill:url(#_Linear7);"/>
        </g>
        <path id="title-line-12" serif:id="title-line-1" d="M692,296C692,305.383 684.383,313 675,313L417,313C407.617,313 400,305.383 400,296C400,286.617 407.617,279 417,279L675,279C684.383,279 692,286.617 692,296Z" style="fill:url(#_Linear8);"/>
        <g id="subtitle-line-12" serif:id="subtitle-line-1" transform="matrix(1,0,0,1,-6,0.349378)">
            <path d="M596,348C596,356.279 589.279,363 581,363L421,363C412.721,363 406,356.279 406,348C406,339.721 412.721,333 421,333L581,333C589.279,333 596,339.721 596,348Z" style="fill:url(#_Linear9);"/>
        </g>
    </g>
    <path id="divider-1" d="M224,402.5L805,402.5" style="fill:none;fill-rule:nonzero;stroke:white;stroke-opacity:0.85;stroke-width:4px;"/>
    <path id="divider-2" d="M224,577.5L805,577.5" style="fill:none;fill-rule:nonzero;stroke:white;stroke-opacity:0.85;stroke-width:4px;"/>
    <defs>
        <linearGradient id="_Linear1" x1="0" y1="0" x2="1" y2="0" gradientUnits="userSpaceOnUse" gradientTransform="matrix(84,84,-84,84,274,270)"><stop offset="0" style="stop-color:rgb(71,184,255);stop-opacity:1"/><stop offset="1" style="stop-color:rgb(20,123,255);stop-opacity:1"/></linearGradient>
        <linearGradient id="_Linear2" x1="0" y1="0" x2="1" y2="0" gradientUnits="userSpaceOnUse" gradientTransform="matrix(290,0,0,290,400,292)"><stop offset="0" style="stop-color:rgb(184,190,199);stop-opacity:1"/><stop offset="1" style="stop-color:rgb(143,150,161);stop-opacity:1"/></linearGradient>
        <linearGradient id="_Linear3" x1="0" y1="0" x2="1" y2="0" gradientUnits="userSpaceOnUse" gradientTransform="matrix(190,0,0,190,406,344)"><stop offset="0" style="stop-color:rgb(238,241,245);stop-opacity:1"/><stop offset="1" style="stop-color:rgb(213,218,225);stop-opacity:1"/></linearGradient>
        <linearGradient id="_Linear4" x1="0" y1="0" x2="1" y2="0" gradientUnits="userSpaceOnUse" gradientTransform="matrix(84,84,-84,84,274,270)"><stop offset="0" style="stop-color:rgb(71,184,255);stop-opacity:1"/><stop offset="1" style="stop-color:rgb(20,123,255);stop-opacity:1"/></linearGradient>
        <linearGradient id="_Linear5" x1="0" y1="0" x2="1" y2="0" gradientUnits="userSpaceOnUse" gradientTransform="matrix(290,0,0,290,400,292)"><stop offset="0" style="stop-color:rgb(184,190,199);stop-opacity:1"/><stop offset="1" style="stop-color:rgb(143,150,161);stop-opacity:1"/></linearGradient>
        <linearGradient id="_Linear6" x1="0" y1="0" x2="1" y2="0" gradientUnits="userSpaceOnUse" gradientTransform="matrix(190,0,0,190,406,344)"><stop offset="0" style="stop-color:rgb(238,241,245);stop-opacity:1"/><stop offset="1" style="stop-color:rgb(213,218,225);stop-opacity:1"/></linearGradient>
        <linearGradient id="_Linear7" x1="0" y1="0" x2="1" y2="0" gradientUnits="userSpaceOnUse" gradientTransform="matrix(84,84,-84,84,274,270)"><stop offset="0" style="stop-color:rgb(71,184,255);stop-opacity:1"/><stop offset="1" style="stop-color:rgb(20,123,255);stop-opacity:1"/></linearGradient>
        <linearGradient id="_Linear8" x1="0" y1="0" x2="1" y2="0" gradientUnits="userSpaceOnUse" gradientTransform="matrix(290,0,0,290,400,292)"><stop offset="0" style="stop-color:rgb(184,190,199);stop-opacity:1"/><stop offset="1" style="stop-color:rgb(143,150,161);stop-opacity:1"/></linearGradient>
        <linearGradient id="_Linear9" x1="0" y1="0" x2="1" y2="0" gradientUnits="userSpaceOnUse" gradientTransform="matrix(190,0,0,190,406,344)"><stop offset="0" style="stop-color:rgb(238,241,245);stop-opacity:1"/><stop offset="1" style="stop-color:rgb(213,218,225);stop-opacity:1"/></linearGradient>
    </defs>
</svg>
